Coordinates
version=1
nRows=19
nColumns=24
inDegrees=yes

Units are S.I. units (second, meters, Newtons, ...)
Angles are in degrees.

endheader
time	pelvis_tilt	pelvis_list	pelvis_rotation	pelvis_tx	pelvis_ty	pelvis_tz	hip_flexion_r	hip_adduction_r	hip_rotation_r	knee_angle_r	ankle_angle_r	subtalar_angle_r	mtp_angle_r	hip_flexion_l	hip_adduction_l	hip_rotation_l	knee_angle_l	ankle_angle_l	subtalar_angle_l	mtp_angle_l	lumbar_extension	lumbar_bending	lumbar_rotation
      3.33500000	     -3.83257609	     -1.38722070	     -9.30163258	     -0.77244887	      0.90179322	      0.23658407	    -10.30508564	      6.66103104	      9.41850124	    -20.77990460	     25.80054974	     -5.14755063	      0.00000000	     31.94236254	     -1.92609540	     -9.41389601	     -6.71200403	      7.80015523	     -9.14662992	      0.00000000	     -9.67419757	     -0.09282500	      1.12917778
      3.34000000	     -3.87848934	     -1.16974241	     -9.20299878	     -0.76428138	      0.90073837	      0.23631899	    -10.35353345	      6.28729182	      8.80033546	    -21.50643424	     25.64907238	     -4.28298170	      0.00000000	     32.19507226	     -1.58691548	     -9.16052695	     -7.69231433	      7.01245648	     -9.92702645	      0.00000000	     -9.53237754	     -0.38926345	      1.05705629
      3.34500000	     -3.95417238	     -0.86665592	     -9.08030744	     -0.75601787	      0.89973849	      0.23603613	    -10.32375260	      5.83260387	      8.15695807	    -22.29676355	     25.42049358	     -3.44835721	      0.00000000	     32.47900730	     -1.15537646	     -8.86887604	     -8.68048848	      6.06360751	    -10.77387678	      0.00000000	     -9.32355297	     -0.77628457	      0.94875935
      3.35000000	     -4.04706269	     -0.51942576	     -8.92492648	     -0.74774431	      0.89883252	      0.23568499	    -10.21987159	      5.33025168	      7.44289858	    -23.16347615	     25.10340576	     -2.58973096	      0.00000000	     32.79108699	     -0.66203175	     -8.49397411	     -9.68677623	      4.96401818	    -11.69901554	      0.00000000	     -9.08796802	     -1.21022435	      0.82237099
      3.35500000	     -4.15787376	     -0.11789519	     -8.74980175	     -0.73951082	      0.89801623	      0.23531619	    -10.02181541	      4.77497072	      6.70452367	    -24.14378909	     24.70502201	     -1.71878460	      0.00000000	     33.13861435	     -0.10968099	     -8.07672032	    -10.71765562	      3.77593835	    -12.64924814	      0.00000000	     -8.83323852	     -1.71266772	      0.66832750
      3.36000000	     -4.28396529	      0.33479698	     -8.55363107	     -0.73128207	      0.89729521	      0.23491322	     -9.74027837	      4.16465884	      5.93058429	    -25.22235495	     24.20727189	     -0.85450686	      0.00000000	     33.52105472	      0.50174767	     -7.62634951	    -11.78454319	      2.55504041	    -13.61509424	      0.00000000	     -8.55648813	     -2.27228397	      0.48586099
      3.36500000	     -4.41598061	      0.82310345	     -8.34056845	     -0.72307100	      0.89667937	      0.23449523	     -9.38630720	      3.51500987	      5.14479320	    -26.40042622	     23.59400413	     -0.01507843	      0.00000000	     33.93022186	      1.15396086	     -7.17429449	    -12.89684322	      1.35772217	    -14.55786006	      0.00000000	     -8.27397367	     -2.87632761	      0.29036680
      3.37000000	     -4.55056710	      1.34211670	     -8.11954543	     -0.71486090	      0.89614455	      0.23409470	     -8.96524220	      2.83162625	      4.37399555	    -27.67952322	     22.86911562	      0.79032869	      0.00000000	     34.36418182	      1.83425447	     -6.75790002	    -14.06688934	      0.26011919	    -15.44655146	      0.00000000	     -7.98677904	     -3.52588906	      0.07718244
      3.37500000	     -4.67509384	      1.85955805	     -7.88834668	     -0.70666475	      0.89572733	      0.23367646	     -8.49532452	      2.14256600	      3.62177238	    -29.05073918	     21.99721626	      1.55913988	      0.00000000	     34.79491824	      2.51780352	     -6.35864782	    -15.27285211	     -0.74248433	    -16.25967067	      0.00000000	     -7.71904498	     -4.17273017	     -0.11900647
      3.38000000	     -4.78422266	      2.38469744	     -7.66179715	     -0.69845277	      0.89538942	      0.23331324	     -7.98417808	      1.44212892	      2.91559619	    -30.51016487	     20.99406445	      2.25912784	      0.00000000	     35.21002296	      3.19926655	     -6.00758104	    -16.50840948	     -1.57693637	    -16.97000758	      0.00000000	     -7.46715219	     -4.84179561	     -0.31783939
      3.38500000	     -4.86976615	      2.89418555	     -7.44253015	     -0.69022230	      0.89514065	      0.23293729	     -7.44760177	      0.74680415	      2.26014628	    -32.04297720	     19.84970650	      2.90827114	      0.00000000	     35.59075745	      3.86312769	     -5.70695200	    -17.75608544	     -2.24113736	    -17.58703154	      0.00000000	     -7.24453831	     -5.49305170	     -0.49313784
      3.39000000	     -4.92632707	      3.40167190	     -7.23070920	     -0.68197403	      0.89495413	      0.23259738	     -6.88648200	      0.04880043	      1.65966848	    -33.65500744	     18.58583626	      3.47144267	      0.00000000	     35.91936517	      4.51770680	     -5.46345656	    -18.98984385	     -2.70926941	    -18.09689055	      0.00000000	     -7.05515911	     -6.14942543	     -0.66410934
      3.39500000	     -4.94259124	      3.90348452	     -7.02154528	     -0.67362882	      0.89491695	      0.23229523	     -6.33608953	     -0.64499979	      1.12579424	    -35.29701128	     17.12933986	      3.92208690	      0.00000000	     36.14831112	      5.15946042	     -5.30303570	    -20.15125491	     -2.97718347	    -18.43286454	      0.00000000	     -6.89737327	     -6.80756484	     -0.82856528
      3.40000000	     -4.94243456	      4.37895291	     -6.83279594	     -0.66537377	      0.89489824	      0.23192351	     -5.72908866	     -1.33505891	      0.62218185	    -37.03403343	     15.61183620	      4.36670815	      0.00000000	     36.32595517	      5.77657839	     -5.16132862	    -21.25939463	     -3.11137193	    -18.75716638	      0.00000000	     -6.78007467	     -7.41966027	     -0.95220794
      3.40500000	     -4.91914724	      4.84819585	     -6.65381393	     -0.65713545	      0.89495517	      0.23152461	     -5.09795292	     -2.02462968	      0.18246467	    -38.81466464	     13.98855408	      4.71334189	      0.00000000	     36.42305693	      6.38589639	     -5.07060566	    -22.27777849	     -3.08592930	    -18.98764994	      0.00000000	     -6.69166100	     -8.01733373	     -1.07502714
      3.41000000	     -4.89767491	      5.29929445	     -6.48806250	     -0.64899846	      0.89502361	      0.23105436	     -4.39796265	     -2.71137450	     -0.21309834	    -40.66475561	     12.32078686	      5.03690121	      0.00000000	     36.47240689	      6.97502021	     -5.03444970	    -23.20473841	     -2.93192215	    -19.16915793	      0.00000000	     -6.61986795	     -8.57699989	     -1.16317759
      3.41500000	     -4.82174709	      5.75064159	     -6.30461237	     -0.64079380	      0.89526260	      0.23061365	     -3.74761777	     -3.37904385	     -0.54272879	    -42.47856874	     10.50616594	      5.11155440	      0.00000000	     36.38167889	      7.57488677	     -5.03629719	    -24.00753599	     -2.58100534	    -19.18570543	      0.00000000	     -6.60093739	     -9.14418708	     -1.29704180
      3.42000000	     -4.77402635	      6.20336518	     -6.12349939	     -0.63270935	      0.89547924	      0.23010785	     -3.00126259	     -4.06380519	     -0.85620080	    -44.34937070	      8.71554764	      5.17480710	      0.00000000	     36.27558611	      8.16758376	     -5.11343099	    -24.71814558	     -2.12803994	    -19.13145256	      0.00000000	     -6.56830820	     -9.70094549	     -1.41242638
      3.42500000	     -4.69557949	      6.64653201	     -5.94084511	     -0.62464455	      0.89579712	      0.22954743	     -2.26489501	     -4.73023260	     -1.11467760	    -46.19500434	      6.87973316	      5.00269901	      0.00000000	     36.07037149	      8.76877714	     -5.16687276	    -25.32296728	     -1.56041949	    -19.03996204	      0.00000000	     -6.57168146	    -10.22274375	     -1.56504653
